<svg id="レイヤー_1" data-name="レイヤー 1" xmlns="http://www.w3.org/2000/svg" viewBox="0 0 237.42 35.67"><defs><style>.cls-1{fill:#212121;}</style></defs><title>chefdeli-logo</title><path class="cls-1" d="M238.71,32.59V47.46H233.1V32.59H208.49v9.5h17.27v5.37H202.92V32.59h-26v9.5h18.23v5.37H171.31V32.59H164V47.21H152.35a18.35,18.35,0,0,1-8.68-2.09,16,16,0,0,1-6.36-5.95,16.67,16.67,0,0,1-2.37-9,19.76,19.76,0,0,1,2-8.68,15.74,15.74,0,0,1,6.26-6.67,20.74,20.74,0,0,1,10.87-2.59H164V27.22h7.31V12.54h23.13v5.37H176.88v9.31h26V12.54h5.61V27.22H233.1V12.54h5.61V32.59Zm-80.32,9.24V17.65h-5.85a12.88,12.88,0,0,0-5.59,1.3A10.76,10.76,0,0,0,142.48,23a12.56,12.56,0,0,0-1.76,6.84,12.53,12.53,0,0,0,1.61,6.5,10.34,10.34,0,0,0,4.46,4.1,14.86,14.86,0,0,0,6.6,1.39Z" transform="translate(-1.29 -12.18)"/><polygon class="cls-1" points="126.27 0.36 126.27 5.73 110.67 5.73 110.67 15.57 124.25 15.57 124.25 20.89 110.67 20.89 110.67 35.28 105.06 35.28 105.06 0.36 126.27 0.36"/><polygon class="cls-1" points="97.34 29.91 97.34 35.28 73.49 35.28 73.49 0.36 96.66 0.36 96.66 5.73 79.11 5.73 79.11 15.04 94.75 15.04 94.75 20.41 79.11 20.41 79.11 29.91 97.34 29.91"/><polygon class="cls-1" points="63.9 0.36 63.9 35.28 58.29 35.28 58.29 20.41 41.11 20.41 41.11 35.28 35.5 35.28 35.5 0.36 41.11 0.36 41.11 15.09 58.29 15.09 58.29 0.36 63.9 0.36"/><path class="cls-1" d="M27,39.73l2.35,5a18.72,18.72,0,0,1-4.25,2.11,17.05,17.05,0,0,1-5.92,1A18.38,18.38,0,0,1,9.7,45.47a16.39,16.39,0,0,1-6.23-6.35,18.13,18.13,0,0,1-2.18-8.8A19.65,19.65,0,0,1,3.47,21a16.16,16.16,0,0,1,6.09-6.45,17.08,17.08,0,0,1,8.9-2.33,18.88,18.88,0,0,1,5.69.82,19.94,19.94,0,0,1,4.62,2l-2.2,5.3a13.66,13.66,0,0,0-7.92-2.73,10.66,10.66,0,0,0-5.73,1.66,12.11,12.11,0,0,0-4.25,4.51A12.69,12.69,0,0,0,7.09,30a13.93,13.93,0,0,0,1.46,6.4,10.85,10.85,0,0,0,4.18,4.47A12,12,0,0,0,19,42.48a13,13,0,0,0,4.58-.77A11.21,11.21,0,0,0,27,39.73Z" transform="translate(-1.29 -12.18)"/></svg>